<svg xmlns="http://www.w3.org/2000/svg" width="283" height="298" viewBox="0 0 283 298">
    <defs>
        <filter id="a" width="200%" height="200%" x="-50%" y="-50%" filterUnits="objectBoundingBox">
            <feOffset in="SourceAlpha" result="shadowOffsetOuter1"/>
            <feGaussianBlur in="shadowOffsetOuter1" result="shadowBlurOuter1" stdDeviation="2"/>
            <feColorMatrix in="shadowBlurOuter1" result="shadowMatrixOuter1" values="0 0 0 0 1 0 0 0 0 1 0 0 0 0 1 0 0 0 0.252292799 0"/>
            <feMerge>
                <feMergeNode in="shadowMatrixOuter1"/>
                <feMergeNode in="SourceGraphic"/>
            </feMerge>
        </filter>
    </defs>
    <g fill="none" fill-rule="evenodd" filter="url(#a)" transform="translate(5 5)">
        <g transform="translate(125.295 9.159)">
            <path d="M17.013 16.413a11.29 11.29 0 0 0-.288-.004c-.913 0-1.662.12-1.876.477l.705-1.488c-.955.94-2.1 1.488-3.33 1.488-1.26 0-2.43-.573-3.398-1.555l1.01 2.287c-.236-.393-1.147-.593-2.222-.688.415.779 1.445 1.41 2.777 1.716l1.833 3.024 1.833-3.024c1.617-.372 2.791-1.221 2.956-2.233zM17.78 22.35h-1.198v1.097H15.5v1.218h1.082v1.097h1.199v-1.097h1.08v-1.218h-1.08z"/>
            <path d="M12.224 15.944c1.76 0 3.317-1.273 4.28-3.232.53-1.077.878-2.36.981-3.754a6.24 6.24 0 0 0 .06-.776l-.328-.062h-.034l-1.791-.231c.983-.576.463-1.836.221-2.258-.072-.125-.122-.199-.122-.199-.013.012-.028.02-.042.03-2.798 2.048-5.09 2.824-5.09 2.824-1.264.508-3.382.864-3.382.862.347 3.837 2.564 6.796 5.247 6.796zM8.297 20.363c-.522-1.107-1.199-1.87-1.961-2.21a1.032 1.032 0 0 0-.446-.533c.186-.911 1.22-2.188 2.499-2.188v-.851c-.863 0-1.712.403-2.39 1.134-.521.562-.865 1.24-.953 1.876a1.035 1.035 0 0 0-.512.592c-.285.135-.557.33-.81.58-.436.424-.832 1.016-1.144 1.71a.608.608 0 0 0-.018.455c-.316.818-.49 1.676-.49 2.421 0 .817.039 1.294.25 1.639.223.363.585.472.858.518a.502.502 0 0 0 .338.133h.759c.28 0 .507-.231.507-.516v-.03a.512.512 0 0 0-.507-.486h-.76a.502.502 0 0 0-.227.055c-.203-.038-.239-.095-.256-.124-.114-.186-.123-.71-.123-1.188 0-.625.145-1.351.409-2.053a.602.602 0 0 0 .345-.319c.494-1.096 1.2-1.804 1.798-1.804.586 0 1.26.656 1.757 1.712.06.13.166.233.296.291.288.727.454 1.515.454 2.173 0 .61-.02 1.02-.114 1.187-.017.029-.047.08-.226.119a.495.495 0 0 0-.213-.048H6.66a.513.513 0 0 0-.508.504v.012c0 .285.228.516.508.516h.758a.498.498 0 0 0 .353-.147c.987-.199 1.038-.948 1.038-2.143 0-.755-.184-1.652-.508-2.473a.612.612 0 0 0-.003-.514zM18.963 17.885a1.807 1.807 0 0 0-.37-.15 4.044 4.044 0 0 0-.337-1.151c-.42-.91-1.103-1.563-1.922-1.836l-.146-.049-.047.148-.167.514-.047.148.145.048c.932.31 1.494 1.289 1.66 2.146a1.832 1.832 0 0 0-1.25.945 1.875 1.875 0 0 0 .75 2.519 1.82 1.82 0 0 0 2.482-.763 1.875 1.875 0 0 0-.751-2.52zm-.865 2.571a.924.924 0 0 1-.917-.93c0-.515.41-.931.917-.931.506 0 .917.416.917.93 0 .515-.411.931-.917.931z"/>
            <path fill="#FFF" d="M21.549 18.188a7.845 7.845 0 0 0-2.86-1.65c1.36.154 2.552.392 2.552.392-2.713-1.514-2.643-6.949-2.643-6.949C19.027.452 13.458 0 12.4 0c-.11 0-.172.005-.172.005l-.004.017-.006-.016s-.062-.005-.172-.005c-1.058 0-6.627.45-6.197 9.98 0 0 .07 5.436-2.643 6.95 0 0 .731-.051 1.707-.069a7.893 7.893 0 0 0-2.019 1.325A8.069 8.069 0 0 0 .22 24.208c0 .935.162 1.632.45 2.16.725 1.326 2.277 1.552 4.263 1.552.981 0 2.067-.053 3.21-.053h8.162c1.143 0 2.23.053 3.211.053 1.986 0 3.538-.226 4.264-1.552.288-.528.45-1.225.45-2.16a8.064 8.064 0 0 0-2.68-6.02zm-11.19-9.902s2.291-.776 5.09-2.824c.014-.01.029-.019.041-.03 0 0 .05.074.122.199.243.422.762 1.681-.22 2.258l1.79.23h.034l.329.063a6.3 6.3 0 0 1-.06.776c-.104 1.393-.453 2.677-.982 3.753-.962 1.96-2.52 3.233-4.28 3.233-2.682 0-4.9-2.96-5.247-6.796 0 .001 2.118-.355 3.383-.862zm-2.59 17.206a.499.499 0 0 1-.352.147H6.66a.512.512 0 0 1-.508-.516v-.012a.513.513 0 0 1 .508-.504h.758c.073 0 .146.017.213.048.18-.038.21-.09.226-.12.095-.166.114-.576.114-1.186 0-.658-.166-1.446-.454-2.172a.598.598 0 0 1-.296-.291c-.498-1.056-1.17-1.713-1.757-1.713-.598 0-1.304.708-1.798 1.804a.6.6 0 0 1-.345.319c-.264.702-.41 1.429-.41 2.053 0 .477.01 1.002.124 1.189.017.028.053.085.256.123a.502.502 0 0 1 .228-.055h.759c.27 0 .49.215.507.486v.03a.512.512 0 0 1-.507.516h-.76a.5.5 0 0 1-.337-.133c-.273-.045-.635-.155-.858-.518-.211-.345-.25-.822-.25-1.639 0-.745.174-1.602.49-2.42a.607.607 0 0 1 .018-.456c.312-.694.708-1.286 1.143-1.71a3.03 3.03 0 0 1 .811-.58c.093-.264.278-.477.512-.592.088-.636.432-1.314.952-1.876.68-.731 1.528-1.134 2.39-1.134v.85c-1.278 0-2.312 1.277-2.498 2.19.2.114.358.302.446.533.762.34 1.44 1.102 1.96 2.209a.61.61 0 0 1 .004.513c.324.82.508 1.718.508 2.473 0 1.196-.05 1.946-1.038 2.144zm4.455-3.821l-1.834-3.024c-1.332-.307-2.361-.938-2.777-1.717 1.076.095 1.986.295 2.222.688l-1.01-2.287c.968.982 2.138 1.556 3.398 1.556 1.231 0 2.376-.549 3.33-1.488l-.705 1.488c.215-.358.963-.478 1.877-.478.094 0 .19.002.288.004-.165 1.012-1.34 1.861-2.957 2.234l-1.832 3.024zm6.638 2.994H17.78v1.097h-1.2v-1.097h-1.08v-1.218h1.08V22.35h1.2v1.097h1.08v1.218zm.852-4.261a1.82 1.82 0 0 1-2.481.763 1.876 1.876 0 0 1-.752-2.519 1.832 1.832 0 0 1 1.25-.945c-.165-.857-.727-1.835-1.659-2.146l-.145-.048.047-.148.167-.514.047-.148.146.049c.82.273 1.502.925 1.922 1.836.173.377.285.769.337 1.15.125.037.25.086.37.15a1.875 1.875 0 0 1 .751 2.52z"/>
            <ellipse cx="18.098" cy="19.526" fill="#FFF" rx=".917" ry=".931"/>
        </g>
        <path fill="#FFF" d="M24.938 168.933c-8.696 0-15.77 7.067-15.77 15.754s7.074 15.754 15.77 15.754c8.695 0 15.769-7.067 15.769-15.754s-7.074-15.754-15.77-15.754zm5.763 29.036l-.952-.296-1.276-.212-2.312.531-.638.425h-1.17l-.718.027-.77-.346-.479-.637-.568-.16.09.611-.425.664-1.436-.743-.456.308c-5.353-2.13-9.147-7.356-9.147-13.454 0-.84.076-1.66.214-2.462l1.255.418.851.531.266.56.478.953.85.4-1.86.796-.053 2.496.232 1.115.991.585.585.85 1.541 2.761.663 1.806 1.358 1.328 1.17.478.318-.531-.478-1.01.09-1.752.282-1.062 1.701-.797-.478-1.222s.69-1.327.638-1.646c-.054-.319.957-.797.957-.797l.492-.223.358-.892-.173-.668-.624-.182-1.542-1.833-1.382-.952-3.562-.242-.691.637-.744.053.106-.69-.106-.478.319-.744.495-.314-.283-.429h-1.063s-.532-.85-.904-1.275c-.372-.424 1.542-3.08 1.542-3.08l1.914-.053.29 1.062.507.531.744.265-.478-1.274v-.797l.611-.956.665-1.115v-.956l.638-.319 1.17-.265.188-.606s-.255-.564-.135-.669c.12-.105.166-.85.652-1.222a.548.548 0 0 0 .078-.071 14.34 14.34 0 0 1 1.519-.332l-.282.51v.743h.957l.478-.584 1.17-.372-.028-.485h.027c.88 0 1.74.083 2.579.234l-.586.212.998.391 1.109.223.578.381.107 1.063 1.329.85 1.084.185-.446.611-.904.425-.532.531.16.69 1.375.476.698-.263.937-.318.498-.744.745.478-.266.744 1.462.212 1.143.744v.318l-1.143-1.062-1.834-.106-1.701.053-1.117.584-1.116.531-1.17.956-.478 1.328.478.797.309.883-.628.718.532 1.001 1.489.744 1.116.902 1.68.213 1.084.213.957-.213.479.797.053.743-.372 1.275.345.531-1.196 1.593v1.062l-.51 1.68-.606.87.67.796.9-.008.338-.31.248.021a14.553 14.553 0 0 1-5.112 3.726z"/>
        <path fill="#000" d="M15.635 180.253v.319h.478l.744.318.479-.318-.85-.319zM17.549 180.253l.69.319.267-.319-.479-.319zM19.143 181.036l.532-.232-.532-.232zM29.244 172.286s-.146-.358-.2-.677c-.052-.318-.943.014-.943.014l-.399.256 1.01.407h.532z"/>
        <path fill="#FFF" d="M247.534 167.915c-7.314 0-13.243 5.923-13.243 13.23h2.037c0-1.125.912-2.035 2.038-2.035 1.125 0 2.037.91 2.037 2.035h2.037c0-1.125.912-2.035 2.038-2.035 1.125 0 2.037.91 2.037 2.035v10.177a1.019 1.019 0 0 1-2.037 0h-2.038a3.054 3.054 0 0 0 3.056 3.053 3.054 3.054 0 0 0 3.056-3.053v-10.177c0-1.125.912-2.035 2.038-2.035 1.125 0 2.037.91 2.037 2.035h2.037c0-1.125.912-2.035 2.037-2.035 1.126 0 2.038.91 2.038 2.035h2.037c0-7.307-5.928-13.23-13.242-13.23zm9.167 9.16c-.773 0-1.484.233-2.1.607-.2-2.527-.923-4.813-2.02-6.534a11.23 11.23 0 0 1 5.487 6.178 4.056 4.056 0 0 0-1.367-.252zm-6.111 0c-.748 0-1.436.218-2.038.57v-7.5c1.982.764 3.644 3.696 4.002 7.455a4.032 4.032 0 0 0-1.964-.526zm-4.075.57a4.023 4.023 0 0 0-2.037-.57c-.717 0-1.379.2-1.964.525.357-3.759 2.02-6.69 4-7.454v7.498zm-6.049.037a4.035 4.035 0 0 0-2.1-.608c-.482 0-.937.099-1.366.252a11.23 11.23 0 0 1 5.486-6.178c-1.097 1.721-1.82 4.007-2.02 6.534zM117.004 253.4c-4.235 0-6.974 4.333-6.99 7.893-.027 6.548 12.733 14.635 12.733 14.635s12.762-8.086 12.734-14.635c-.015-3.56-2.756-7.894-6.99-7.894-1.943 0-4.393 1.303-5.744 2.529-1.351-1.226-3.801-2.529-5.743-2.529z"/>
        <ellipse cx="24.957" cy="184.707" stroke="#FFF" stroke-width="1.98" rx="24.957" ry="24.933"/>
        <ellipse cx="139.047" cy="24.933" stroke="#FFF" stroke-width="1.98" rx="24.957" ry="24.933"/>
        <path stroke="#FFF" stroke-dasharray="0.9900000607967385,2.970000116825105" stroke-linecap="round" stroke-width=".99" d="M43.344 60.503l-17.42 95.757M107.518 143.947l-56.125 25.547M205.307 85.936l-47.973 31.661M137.01 52.356l-3.057 50.99M66.671 53.38l44.923 59.12M156.314 144.973l64.275 30.62M130.961 161.251l-6.24 75.406M47.317 199.922l54.09 45.895M75.836 27.986l33.723-3.053M245.023 152.193l-12.296-53.03M203.268 59.59l-39.82-23.52M225.686 198.908l-77.525 49.958"/>
        <ellipse cx="248.043" cy="181.654" stroke="#FFF" stroke-width="1.98" rx="24.957" ry="24.933"/>
        <ellipse cx="122.748" cy="263.067" stroke="#FFF" stroke-width="1.98" rx="24.957" ry="24.933"/>
        <path fill="#FFF" d="M135.986 131.819a6.96 6.96 0 0 0 2.804-5.59c0-3.795-3.078-6.899-6.874-6.899s-6.874 3.064-6.874 6.86c0 2.272 1.104 4.385 2.804 5.636-3.89 1.577-6.628 5.555-6.628 10.005 0 5.933 21.396 5.933 21.396 0 0-4.45-2.74-8.435-6.628-10.012z"/>
        <ellipse cx="131.916" cy="131.788" stroke="#FFF" stroke-width="1.98" rx="24.957" ry="24.933"/>
        <ellipse cx="48.386" cy="32.057" stroke="#FFF" stroke-width="1.98" rx="24.957" ry="24.933"/>
        <ellipse cx="229.707" cy="69.71" stroke="#FFF" stroke-width="1.98" rx="24.957" ry="24.933"/>
        <g fill="#FFF">
            <path d="M37.103 24.56c-1.817 0-2.731.897-2.731 2.68v13.318c0 1.795.914 2.692 2.731 2.692h20.42c1.818 0 2.732-.897 2.732-2.692V27.241c0-1.784-.914-2.682-2.731-2.682h-20.42z"/>
            <path d="M42.033 21.544l-.01.011c-.67.691-1.01 1.524-1.01 2.507v.011c0 .984.34 1.827 1.02 2.51.68.69 1.498 1.037 2.465 1.037h5.717a3.29 3.29 0 0 0 2.455-1.038c.01 0 .01 0 .01-.012.68-.68 1.02-1.513 1.02-2.497v-.01c0-.984-.34-1.817-1.02-2.508-.67-.692-1.499-1.038-2.465-1.038h-5.717c-.967 0-1.785.346-2.465 1.027zm1.488 1.535c.01 0 .01 0 .01-.01.266-.26.595-.39.967-.39h5.718c.371 0 .7.13.966.4s.393.595.393.984v.011c0 .379-.128.703-.393.973l-.01.01c-.266.271-.585.4-.956.4h-5.718c-.381 0-.7-.129-.967-.4a1.357 1.357 0 0 1-.393-.983v-.012c0-.378.128-.712.383-.983z"/>
        </g>
        <g fill="#FFF">
            <g transform="scale(-1 1) rotate(45 -193.755 -260.22)">
                <path d="M0 0v5.148h23.027V0H0zm.736 4.385V.763h14.199v3.622H.735zm21.556 0h-1.913V.763h1.913v3.622z"/>
                <ellipse cx="6.817" cy="2.346" rx=".478" ry=".496"/>
                <ellipse cx="8.627" cy="2.346" rx=".478" ry=".496"/>
                <ellipse cx="11.344" cy="2.346" rx=".478" ry=".496"/>
                <ellipse cx="13.155" cy="2.346" rx=".478" ry=".496"/>
            </g>
            <path d="M237.822 62.304v-3.877a3.465 3.465 0 0 0-3.455-3.473h-9.863a3.465 3.465 0 0 0-3.455 3.473v23.585a3.465 3.465 0 0 0 3.455 3.472h9.863a3.465 3.465 0 0 0 3.455-3.472v-8.914l-9.765 9.766-5.397-5.397 15.162-15.163zm-9.71-4.602h2.942v.61h-2.943v-.61z"/>
        </g>
        <ellipse cx="128.86" cy="188.777" fill="#FFF" rx="2.547" ry="2.544"/>
        <ellipse cx="212.39" cy="171.477" fill="#FFF" rx="2.547" ry="2.544"/>
        <ellipse cx="170.625" cy="152.141" fill="#FFF" rx="2.547" ry="2.544"/>
        <ellipse cx="237.856" cy="124.664" fill="#FFF" rx="2.547" ry="2.544"/>
        <ellipse cx="180.812" cy="101.258" fill="#FFF" rx="2.547" ry="2.544"/>
        <ellipse cx="104.412" cy="102.276" fill="#FFF" rx="2.547" ry="2.544"/>
        <ellipse cx="31.069" cy="126.7" fill="#FFF" rx="2.547" ry="2.544"/>
        <ellipse cx="77.927" cy="226.431" fill="#FFF" rx="2.547" ry="2.544"/>
        <ellipse cx="41.256" cy="71.746" fill="#FFF" rx="2.547" ry="2.544"/>
    </g>
</svg>
