<?xml version="1.0" encoding="UTF-8"?>
<svg width="184px" height="107px" viewBox="0 0 184 107" version="1.1" xmlns="http://www.w3.org/2000/svg" xmlns:xlink="http://www.w3.org/1999/xlink">
    <!-- Generator: Sketch 43.1 (39012) - http://www.bohemiancoding.com/sketch -->
    <title>Fill 13</title>
    <desc>Created with Sketch.</desc>
    <defs></defs>
    <g id="UX" stroke="none" stroke-width="1" fill="none" fill-rule="evenodd">
        <g id="Bucket-Panels" transform="translate(-915.000000, -618.000000)" fill="#585858">
            <g id="graph---bucket-2---pfizer-study" transform="translate(835.000000, 550.000000)">
                <path d="M263.899985,108.499986 C263.86788,134.404915 228.394246,161.830831 182.027566,171.50254 C170.919147,173.819469 160.047505,174.929776 149.797901,174.951179 C144.476455,174.961881 139.322224,174.678285 134.388716,174.119118 L149.633362,115.465489 L159.17665,115.465489 L152.496081,140.365791 L162.232,140.365791 C163.425245,135.924564 167.693907,119.708734 170.214169,110.577463 L150.937638,110.577463 L153.859216,99.2175533 C154.433098,97.0557993 154.893273,95.7916548 155.265159,94.8458874 C156.858383,90.781897 159.305071,88.4475772 162.245377,87.9887396 C164.625179,87.6181914 165.489346,89.1030596 165.49871,90.0515024 C165.5161,91.9109318 164.028557,92.2961949 164.052636,94.8044181 C164.070026,96.6491327 165.25792,99.4436278 169.067744,99.4436278 C172.78259,99.4436278 175.106208,96.9006239 175.294826,93.0988264 C175.385791,91.2594627 175.035309,89.2368315 172.286296,87.3091783 C169.374082,85.2651436 164.167679,84.8263718 160.67222,85.139398 C154.244479,85.7213058 149.657441,89.7170726 146.794722,94.552927 C144.59685,98.2931894 143.360797,101.614746 141.138846,110.206915 C141.138846,110.206915 129.819067,153.664056 124.897599,172.65164 C101.613261,168.019119 84.8516417,156.627104 81.5033309,140.579826 C81.0966643,138.63077 80.8986819,136.66566 80.9000196,134.692525 C80.9120591,108.862508 115.021219,81.6947715 161.278206,72.0471417 C172.57123,69.6900808 183.695702,68.5717476 194.215525,68.5717476 C230.071746,68.5690722 258.88889,81.5556487 263.31674,102.790601 C263.711367,104.67946 263.902661,106.58571 263.899985,108.499986 L263.899985,108.499986 Z M221.126419,131.086034 C220.619423,131.591692 216.313306,135.781428 211.746333,135.781428 C208.343175,135.781428 205.897825,133.326714 205.897825,130.453293 C205.897825,129.83928 205.845654,129.400508 205.975413,128.271473 C211.351706,128.271473 214.555543,127.642745 217.728612,126.583272 C222.821309,124.929851 226.192361,120.579589 226.192361,116.345708 C226.192361,112.264327 221.736419,109.868472 216.579512,109.868472 C206.206838,109.868472 196.501686,119.05994 196.501686,129.840618 C196.501686,136.715156 201.519471,141.349015 208.934447,141.349015 C212.353657,141.349015 215.475893,140.582502 218.20484,139.164519 C219.934511,138.26691 221.456835,137.037546 222.821309,135.623577 L221.126419,131.086034 Z M215.905301,121.705948 C213.605762,123.511869 211.10289,124.175378 206.669689,124.329215 C207.400084,121.041102 209.271552,118.102133 211.707539,116.232002 C213.153613,115.117682 214.918065,114.547814 216.002955,114.547814 C218.384095,114.547814 218.904467,115.874831 218.904467,116.717594 C218.904467,118.258646 217.973415,120.084633 215.905301,121.705948 L215.905301,121.705948 Z M199.012585,110.577463 L174.639344,110.577463 L173.320353,115.464151 L186.918267,115.465489 C183.921777,120.08062 168.170135,130.9536 168.170135,140.365791 L193.117257,140.365791 L194.725196,134.37281 L179.364168,134.37281 C183.008114,127.3645 196.208726,119.841168 199.012585,110.577463 L199.012585,110.577463 Z M250.822444,110.062442 C246.977839,110.062442 242.797467,113.841498 240.560801,116.549041 L242.269068,110.577463 L232.756548,110.577463 L224.715519,140.365791 L234.522337,140.365791 L238.304069,126.46689 C238.587665,125.47564 239.086635,124.08575 239.762183,122.622286 C240.738718,120.49665 242.079112,118.285401 243.653607,116.887484 C244.817423,115.854765 245.937094,115.304963 247.304243,115.523011 C248.255361,115.674173 248.52558,116.475467 248.641962,117.300839 C248.73694,118.005817 248.873387,118.851256 249.700098,119.675291 C250.017137,119.993668 250.809067,120.716036 252.602948,120.716036 C254.974724,120.716036 257.042837,118.706782 257.042837,115.777177 C257.042837,113.282331 256.230842,110.062442 250.822444,110.062442 L250.822444,110.062442 Z M126.964375,110.659064 C124.571196,118.352287 119.685846,119.69937 111.917711,119.718098 C113.821285,112.67902 115.80646,105.345644 117.209728,100.155294 L118.917995,100.155294 C128.158958,100.155294 128.922796,104.365096 126.964375,110.659064 L126.964375,110.659064 Z M120.00556,95.7140671 L108.617558,95.7140671 C108.617558,95.7140671 98.3304988,133.736056 96.5366175,140.365791 L106.331396,140.365791 C106.944072,138.098357 108.655014,131.778973 110.632163,124.467 C130.688585,124.434895 135.396018,118.832528 137.226018,110.977441 C138.706873,104.627289 137.476171,95.7140671 120.00556,95.7140671 L120.00556,95.7140671 Z" id="Fill-13"></path>
            </g>
        </g>
    </g>
</svg>