<svg width="533" height="531" viewBox="0 0 533 531" xmlns="http://www.w3.org/2000/svg"><title>76319266-B948-432C-A0BB-0897F9AFE3DA</title><defs><linearGradient x1="0%" y1="0%" x2="92.155%" y2="92.905%" id="a"><stop stop-color="#FF36B4" offset="0%"/><stop stop-color="#FFA656" stop-opacity=".426" offset="100%"/></linearGradient><linearGradient x1="0%" y1="0%" x2="92.155%" y2="92.905%" id="b"><stop stop-color="#FF36B4" stop-opacity=".167" offset="0%"/><stop stop-color="#FFA656" offset="100%"/></linearGradient><linearGradient x1="0%" y1="0%" x2="92.155%" y2="92.905%" id="c"><stop stop-color="#FF36B4" stop-opacity=".166" offset="0%"/><stop stop-color="#FFA656" offset="100%"/></linearGradient></defs><g fill="none" fill-rule="evenodd"><path d="M281.489 504.66c63.624 0 153.541 2.54 195.44-39.05 42.443-42.127 36.458-128.797 36.458-193.4 0-66.246-2.005-140.224-36.457-180.204-32.312-37.497-94.192-42.344-179.644-63.338C120.72-14.712 135.033-8.43 71.302 44.593 7.572 97.616 49.59 185.965 49.59 272.21c0 70.536 13.613 150.77 63.101 193.4 40.581 34.957 111.093 39.05 168.798 39.05z" fill="url(#a)"/><path d="M458.626 447.583c50.45-50.57 12.096-100.118 12.096-177.415s16.342-100.823-26.81-168.326C400.759 34.34 355.46 6.336 303.468.686c-69.123-7.513-142.8 48.04-195.79 101.156C51.63 158.022-10.197 234.888 1.42 307.771c7.628 47.857 41.422 82.797 106.257 131.105 64.835 48.308 106.811 48.732 168.206 48.308 60.296-.417 136.738 6.514 182.743-39.6" fill="url(#b)"/><path d="M285.8 530.418c124.153 0 247.2-113.698 247.2-238.146S409.953 54 285.8 54c-65.342 0-137.59 17.723-178.665 62.34C70.166 156.496 61 220.381 61 279.332c0 124.449 100.646 251.085 224.8 251.085z" fill="url(#c)"/></g></svg>